# xmcd CD database file
#
# Track frame offsets:
#	150
#	2191
#	4183
#	8731
#	13499
#	25009
#	39335
#	52967
#	78252
#	97177
#	109657
#	127757
#	144467
#	153770
#	178810
#	201638
#	216237
#	234587
#
# Disc length: 3409 seconds
#
# Revision: 0
# Processed by: cddbd v1.5.2PL0 Copyright (c) Steve Scherf et al.
# Submitted via: CDex 1.51
#
DISCID=e60d4f12
DTITLE=Oliver Steeger - Jazz fuer Kinder
DYEAR=2007
DGENRE=Jazz
TTITLE0=Die Instrumente stellen sich vor
TTITLE1=Schlagzeug Swinggroove
TTITLE2=Piano Dreiklang Vierklang Fuenfklang Voicings
TTITLE3=Bass Improvisation Bruder Jakob
TTITLE4=Bruder Jakob Swingfeeling
TTITLE5=Bebop Charlie 1 Parker
TTITLE6=Swing Luis Armstrong
TTITLE7=Big Band Duke Ellington
TTITLE8=Cool Jazz Chet Baker
TTITLE9=Modaler Jazz John Coltrane
TTITLE10=Hommage an Bill Evans
TTITLE11=Latin Jazz Stan Getz
TTITLE12=Free Jazz Charlie 2 Haden
TTITLE13=Hommage an Herbie Hancock
TTITLE14=EuroJazz Manfred ECM
TTITLE15=Fusion Chick Corea
TTITLE16=New Bebop Dave Holland
TTITLE17=Nu Jazz Oliver Steger mit Trompete
EXTD=YEAR: 2007
EXTT0=
EXTT1=
EXTT2=
EXTT3=
EXTT4=
EXTT5=
EXTT6=
EXTT7=
EXTT8=
EXTT9=
EXTT10=
EXTT11=
EXTT12=
EXTT13=
EXTT14=
EXTT15=
EXTT16=
EXTT17=
PLAYORDER=
